<?xml version="1.0" encoding="utf-8"?>
<!-- Generator: Adobe Illustrator 14.0.0, SVG Export Plug-In  -->
<!DOCTYPE svg PUBLIC "-//W3C//DTD SVG 1.1//EN" "http://www.w3.org/Graphics/SVG/1.1/DTD/svg11.dtd" [
	<!ENTITY ns_flows "http://ns.adobe.com/Flows/1.0/">
]>
<svg version="1.1"
	 xmlns="http://www.w3.org/2000/svg" xmlns:xlink="http://www.w3.org/1999/xlink" xmlns:a="http://ns.adobe.com/AdobeSVGViewerExtensions/3.0/"
	 x="0px" y="0px" width="768px" height="1024px" viewBox="-110.026 -176.32 768 1024"
	 enable-background="new -110.026 -176.32 768 1024" xml:space="preserve">
<defs>
	<symbol  id="Bi" viewBox="-87.942 -75.599 175.884 151.2">
		<path fill-rule="evenodd" clip-rule="evenodd" fill="#1E1F20" d="M-20.611,51.572c5.677-1.002,16.271-5.721,22-10
			c-6.899,2.102-13.574,4.426-22,5C-21.209,48.353-17.681,50.725-20.611,51.572z"/>
		<path fill-rule="evenodd" clip-rule="evenodd" fill="#1E1F20" d="M-76.611,23.572c3.916,4.751,8.249,9.084,13,13
			C-67.527,31.821-71.86,27.488-76.611,23.572z"/>
		<path fill-rule="evenodd" clip-rule="evenodd" fill="#1E1F20" d="M18.389-61.428c3.248,4.085,6.915,7.752,11,11
			C26.141-54.513,22.474-58.18,18.389-61.428z"/>
		<path fill-rule="evenodd" clip-rule="evenodd" fill="#1E1F20" d="M38.389-61.428c2.591-3.742,6.461-6.205,9-10
			C44.108-68.374,40.007-66.144,38.389-61.428z"/>
		<path fill-rule="evenodd" clip-rule="evenodd" fill="#1E1F20" d="M20.389,40.572c4.751-3.916,9.085-8.249,13-13
			C28.638,31.488,24.304,35.821,20.389,40.572z"/>
		<path fill-rule="evenodd" clip-rule="evenodd" fill="#1E1F20" d="M-63.611,36.572c10.15,6.184,20.905,11.762,36,13
			c2.851,12.533-4.844,19.131,1,26c7.119,0.453,8.655-4.678,13-7c1.401-5.402-2.7-5.3-3-9c11.377-0.225,29.559,4.003,41-3
			c2.198-8.46-13.78-12.279-4-16c3.915-4.751,8.249-9.084,13-13c9.879-13.454,14.283-32.384,20-50c44.94,11.137,47.188-63.301,0-52
			c-0.806,0.193-2.333,0.333-6,3c-2.539,3.795-6.409,6.258-9,10c-3.771,5.28-3.987,17.636-1,24c-2.663-4.337-6.055-7.945-8-13
			c-4.085-3.248-7.752-6.915-11-11c-9.696-5.086-16.688-11.443-28-13c-62.223-8.564-97.932,52.136-67,98
			C-71.86,27.488-67.527,31.821-63.611,36.572z M-26.611,71.572c5.134-6.422,0.234-17.541,3-25c-33.497-3.6-57.347-20.225-61-50
			c-5.339-43.51,27.425-74.411,74-68c25.096,3.454,46.309,26.018,49,51c3.373,31.313-13.698,49.578-36,62
			c29.607-9.059,37.241-40.092,45-71c-14.61-9.771-9.355-38.385,7-42c34.987-8.561,39.546,39.369,15,46
			c-6.355,0.666-15.946-0.69-18-1c-8.305,27.263-15.293,54.256-37,68c-3.834,2.428-9.323,0.82-11,7c4.22-0.447,5.392-3.941,11-3
			c1.878,3.789,6.686,4.647,7,10c-15.613,5.736-30.184-3.084-42,3C-14.782,64.873-18.276,73.347-26.611,71.572z M38.389-36.428
			c0.979,3.688,4.379,4.954,6,8c-2.354,0.979-0.896,5.771-3,7"/>
		<path fill-rule="evenodd" clip-rule="evenodd" fill="#1E1F20" d="M-11.611,53.572c6.523,0.523,11.384-0.617,16-2
			c0.306-2.307-2.889-1.111-3-3c-0.184-0.851,0.39-0.943,1-1C0.029,47.906-10.232,48.932-11.611,53.572z"/>
		<path fill-rule="evenodd" clip-rule="evenodd" fill="#1E1F20" d="M-28.611-42.428c1.632-2.208,5.871,1.396,8,2
			c-2.588,5.803-2.032,9.969-3,16c2.02,1.314,3.48,3.186,6,4c-4.464,13.335-2.729,40.117-3,63c31.888-3.887,55.799-22.169,56-55
			c0.217-35.345-29.631-59.726-66-56c-65.801,6.74-68.823,110.355,7,111c-4.011-13.931,2.064-34.992-1-49
			c-0.713-3.262-3.713-6.14-4-9c-0.485-4.845,2.786-6.954,3-12C-25.342-33.779-28.909-36.485-28.611-42.428z M-57.611-54.428
			c22.664-17.727,60.186-12.379,77,7c26.821,30.912,6.032,85.951-37,87c0-15.666,0-31.334,0-47c3.311,1.674,9.741-0.231,13-4
			c-3.281-4.806,0.73-2.557,1-8c-3.56-5.44-7.543-10.457-16-11c-1.958-2.688,3.215-4.928,2-10c-2.177-3.822-6.129-5.871-12-6
			c-5.967,6.405,2.108,12.207,1,20c-0.77,3.361-6.829,5.193-3,10c-4.67-1.003-5.59,1.744-5,6c3.041,1.497,6.582-3.021,6,1
			c6.661,10.673,1.246,33.42,3,49c-40.643-0.154-64.793-48.959-41-83C-65.363-47.513-61.696-51.18-57.611-54.428z M-14.611-12.428
			c3.562-4.987-3.597-10.281-2-13c2.125,1.875,4.042,3.958,7,5C-9.414-15.897-10.257-12.406-14.611-12.428z"/>
		<path fill-rule="evenodd" clip-rule="evenodd" fill="#1E1F20" d="M47.389-32.428c3.589-7.078,10.682-10.651,12-20
			c2.111,1.328,2.955-0.493,6,1c-2.711,8.956-12.188,11.145-13,22c28.925,13.417,41.985-29.924,19-39
			C48.785-77.354,30.587-49.733,47.389-32.428z M80.389-48.428c-0.016,12.034-9.767,20.523-24,17c0.694-10.64,12.934-9.733,12-22
			c-2.711-1.289-5.553-2.447-10-2c-3.519,6.147-5.552,13.781-12,17C31.215-68.193,80.426-76.777,80.389-48.428z"/>
		<path fill-rule="evenodd" clip-rule="evenodd" fill="#FFF200" d="M-20.611,58.572c11.816-6.084,26.387,2.736,42-3
			c-0.314-5.353-5.122-6.211-7-10c-5.608-0.941-6.78,2.553-11,3c1.677-6.18,7.166-4.572,11-7c21.707-13.744,28.695-40.737,37-68
			c2.054,0.31,8,4.166,18,1c24.546-6.631,19.987-54.561-15-46c-16.355,3.615-21.61,32.229-7,42c-7.759,30.908-15.393,61.941-45,71
			c22.302-12.422,39.373-30.688,36-62c-2.691-24.982-23.904-47.546-49-51c-46.575-6.411-79.339,24.49-74,68
			c3.653,29.775,27.503,46.4,61,50c-2.766,7.459,2.134,18.578-3,25C-18.276,73.347-14.782,64.873-20.611,58.572z M2.389,47.572
			c-0.61,0.057-1.184,0.149-1,1c0.111,1.889,3.306,0.693,3,3c-4.616,1.383-9.477,2.523-16,2
			C-10.232,48.932,0.029,47.906,2.389,47.572z M-20.611,46.572c8.426-0.574,15.101-2.898,22-5c-5.729,4.279-16.323,8.998-22,10
			C-17.681,50.725-21.209,48.353-20.611,46.572z M-25.611-27.428c-0.214,5.046-3.485,7.155-3,12c0.287,2.86,3.287,5.738,4,9
			c3.064,14.008-3.011,35.069,1,49c-75.823-0.645-72.801-104.26-7-111c36.369-3.726,66.217,20.655,66,56
			c-0.201,32.831-24.112,51.113-56,55c0.271-22.883-1.464-49.665,3-63c-2.52-0.814-3.98-2.686-6-4c0.968-6.031,0.412-10.197,3-16
			c-2.129-0.604-6.368-4.208-8-2C-28.909-36.485-25.342-33.779-25.611-27.428z M71.389-68.428c22.985,9.076,9.925,52.417-19,39
			c0.812-10.855,10.289-13.044,13-22c-3.045-1.493-3.889,0.328-6-1c-1.318,9.349-8.411,12.922-12,20
			C30.587-49.733,48.785-77.354,71.389-68.428z"/>
	</symbol>
	<symbol  id="Gear" viewBox="-117.461 -119.559 234.921 239.116">
		<path fill-rule="evenodd" clip-rule="evenodd" fill="#686A6A" d="M-1.398,119.558c1.397,0,2.796,0,4.194,0
			c5.663-6.922,7.106-18.063,15.382-22.374c9.554,1.65,15.022,14.785,22.373,13.983c8.027-4.559,1.146-24.025,11.188-26.568
			c9.803,0.918,14.269,7.173,25.17,6.992c4.504-8.385-5.208-18.7-1.398-26.568c4.681-9.484,21.667,2.003,27.967-5.594
			c-0.572-10.615-8.721-13.652-11.187-22.373c2.513-10.539,16.947-9.155,25.17-13.984c0-1.864,0-3.729,0-5.593
			c-7.29-3.897-13.216-9.157-18.179-15.382c2.294-9.825,10.873-13.365,18.179-18.178c0-1.865,0-3.73,0-5.594
			c-7.775-4.81-20.633-4.538-25.17-12.585c1.525-10.595,11.253-12.984,11.187-25.17c-9.149-4.092-20.672,2.857-27.967-2.797
			c-3.866-9.047,5.69-18.896,1.398-27.967c-10.924-0.669-15.679,4.831-23.771,6.991c-11.16-1.893-6.098-20.005-11.188-27.967
			c-10.595,1.988-13.673,11.497-22.373,15.382C9.044-99.237,8.773-112.95,1.397-119.559c-9.215,4.769-8.485,19.481-18.178,23.771
			c-9.48-1.723-14.38-15.428-22.374-13.983c-8.027,4.559-1.145,24.026-11.187,26.568c-9.304-1.142-16.786-9.333-25.17-6.991
			c-4.552,9.396,5.233,16.391,2.796,23.771c-3.941,11.942-15.829,2.482-29.365,6.992c0.535,11.118,8.368,14.938,11.187,23.771
			c-3.046,10.47-17.875,9.159-26.568,13.983c0,1.398,0,2.797,0,4.195c7.971,4.613,15.536,9.634,19.577,18.178
			c-3.828,8.758-12.14,13.03-19.577,18.179c0,1.398,0,2.796,0,4.194c9.749,3.77,23.399,3.636,26.568,13.984
			c-2.763,8.424-10.156,12.217-11.187,22.373c6.514,7.068,21.123-2.543,27.967,4.195c5.097,8.93-7.18,21.388,0,27.967
			c10.529,0.93,16.793-8.932,25.17-5.594c9.022,3.563,1.562,23.607,11.187,26.568c8.722-3.863,11.183-13.987,22.374-15.382
			C-9.195,103.116-6.066,112.105-1.398,119.558z M-8.391,72.014c-1.876-10.938,5.787-23.892,6.992-36.356
			c11.277-2.705,19.802-8.166,29.364-12.586c8.629,8.15,22.433,11.128,29.365,20.976C45.531,62.581,21.729,76.446-8.391,72.014z
			 M-23.772,69.217c-23.39-10.17-40.908-26.212-46.145-54.535c9.61-3.907,25.437-1.597,36.357-4.194
			c4.756,10.158,14.563,15.268,20.975,23.771C-16.345,45.882-15.754,61.854-23.772,69.217z M65.722,31.462
			c-13.308-4.405-22.374-13.051-33.561-19.576c2.657-8.45,0.963-19.106,0-27.967c9.668-7.578,16.156-18.338,29.365-22.374
			C74.335-22.827,78.239,12.751,65.722,31.462z M-0.001-11.887c14.876-0.231,14.459,28.896-4.194,20.976
			C-15.348,4.353-10.984-11.716-0.001-11.887z M-71.316,0.698c-1.013-29.953,16.693-53.192,39.154-64.323
			c7.54,7.841,8.605,22.157,15.382,30.763c-7.11,9.67-15.482,18.078-18.179,32.162C-45.415,0.69-62.287,2.472-71.316,0.698z
			 M23.771-25.87c-8.608-3.977-15.313-9.857-29.365-8.39c-5.172-10.678-9.472-22.224-13.983-33.561
			c26.036-11.227,59.759,1.442,71.315,18.179C43.593-40.542,34.073-32.813,23.771-25.87z"/>
	</symbol>
</defs>
<polygon points="249.121,160.346 131.258,326.194 434.538,318.514 302.617,160.346 "/>
<use xlink:href="#Bi"  width="175.884" height="151.2" id="XMLID_4_" x="-87.942" y="-75.599" transform="matrix(1.9789 0 0 -1.9789 284.1392 149.605)" overflow="visible"/>
<use xlink:href="#Gear"  width="234.921" height="239.116" id="XMLID_3_" x="-117.461" y="-119.559" transform="matrix(1.5421 0 0 -1.5421 280.0347 413.3052)" overflow="visible"/>
<path fill-rule="evenodd" clip-rule="evenodd" fill="#1F2022" d="M162.217,330.531c-0.135,9.758-0.962,18.826-9.894,19.788
	c-1.094-3.523-1.017-8.219-3.958-9.894c-4.574,2.021-4.093,9.098-3.958,15.831C129.444,349.497,148.067,320.866,162.217,330.531z"/>
<path fill-rule="evenodd" clip-rule="evenodd" fill="#1F2022" d="M205.752,328.551c-0.115,11.758-8.425,15.318-19.789,15.831
	C188.708,335.254,192.658,327.33,205.752,328.551z"/>
<path fill-rule="evenodd" clip-rule="evenodd" fill="#1F2022" d="M484.777,328.551c-0.117,11.758-8.428,15.318-19.789,15.831
	C467.732,335.254,471.681,327.33,484.777,328.551z"/>
<path fill-rule="evenodd" clip-rule="evenodd" fill="#1F2022" d="M510.501,334.488c3.669,6.226,4.23,15.559,3.958,25.725
	c-4.626,0.611-8.174,3.875-11.874,0C507.553,349.219,501.682,345.32,510.501,334.488z"/>
<path fill-rule="evenodd" clip-rule="evenodd" fill="#1F2022" d="M346.254,374.066c2.296,7.628-9.42,18.244-13.853,25.725
	C328.426,390.484,339.387,379.114,346.254,374.066z"/>
<path fill-rule="evenodd" clip-rule="evenodd" fill="#1C76B2" d="M63.273,358.235c-6.902-17.738-45.758-19.654-43.536,9.894
	c0.905,12.018,14.618,22.801,33.642,19.79c42.741-6.767,63.542-74.764,87.071-102.902c-26.951,1.803-67.373,12.59-65.303,35.62
	c1.963,21.835,29.309,10.21,37.599,1.979c-2.238,17.534-26.672,24.993-43.535,15.831c-17.675-64.903,65.523-62.153,104.881-83.113
	c-27.532,32.404-66.034,142.7-124.67,142.479c-8.787-0.031-28.365-5.691-33.641-13.853
	C-7.685,347.676,54.716,312.287,63.273,358.235z"/>
<path fill-rule="evenodd" clip-rule="evenodd" fill="#344B61" d="M276.994,306.784c5.768-7.425,12.363-14.021,19.788-19.789
	C291.013,294.419,284.417,301.015,276.994,306.784z"/>
<path fill-rule="evenodd" clip-rule="evenodd" fill="#1C76B2" d="M276.994,306.784c-6.177,13.164-20.957,26.158-15.831,43.535
	c9.257,31.39,65.619-2.768,75.196-9.894c-6.807,30.629-70.975,43.86-87.07,13.852c-3.838-57.283,58.916-118.87,104.881-89.05
	c10.706,38.49-24.845,72.697-57.388,55.409c25.576-6.174,50.284-23.472,47.493-51.451c-17.57-10.438-34.415,10.895-47.493,17.81
	C289.357,292.763,282.761,299.359,276.994,306.784z"/>
<path fill-rule="evenodd" clip-rule="evenodd" fill="#1F2022" d="M360.106,306.784c20.854,14.096,49.048-9.124,69.261,7.916
	c4.824-27.053,69.304-81.204,53.431-9.895c2.883,5.032,11.999,3.832,13.853,9.895c7.813-28.006,47.014-5.318,37.599,17.81
	c49.487,12.566-13.393,65.37-43.536,39.579c-12.924,12.928-29.182,0.563-41.557,0c-4.374-0.199-10.402,5.457-15.831,5.937
	c-5.506,0.484-9.434-3.775-15.831-3.958c-14.345-0.411-25.507,7.722-41.557,0c-17.979,9.965-18.518,42.408-39.578,45.515
	c-28.343,4.18-24.471-29.123-11.873-47.493c-34.78,18.389-80.289,11.123-87.07-17.811c-11.542-49.24,56.199-123.856,108.839-108.839
	C366.267,251.147,375.827,285.126,360.106,306.784z M423.431,362.192c7.147,9.938,22.834-0.929,29.684-3.957
	c5.843,16.396,32.129,4.082,41.556,0c9.211,18.906,45.25,5.927,47.494-11.873c-9.371-2.029-12.146,12.807-17.811,7.915
	c1.229-12.091-5.002-21.71,0-31.662c-13.164,1.62-1.45-10.045-11.873-11.874c-2.743,22.252-34.006,67.416-49.473,37.6
	c14.741,5.106,28.797-6.53,29.684-21.769c-0.581-4.035-5.355-3.88-5.937-7.916c-32.57-3.536-26.938,41.65-53.431,37.6
	c17.768-20.554,43.804-43.182,41.557-77.177c-39.997,11.454-26.699,76.202-75.197,79.155c-1.777-3.498-4.777-5.777-5.937-9.894
	c5.098-8.756,5.917-21.788,21.768-19.79c3.646,7.792-7.941,10.277-1.979,13.853c9.274-3.193,13.784-17.532,3.958-23.747
	c-30.896-3.841-27.053,37.578-47.493,37.6c5.224-11.544,19.086-24.078,17.811-35.621c-20.729,6.316-18.143,35.947-43.536,37.599
	c4.633-14.496,16.409-21.849,19.789-37.599c-19.613,5.454-23.663,26.468-31.662,43.537c6.916,6.495,20.408-5.155,23.746-1.98
	c-15.521,8.374-34.856,22.99-27.704,47.493c26.522-9.097,24.597-46.642,55.409-51.45
	C388.469,374.572,417.045,360.873,423.431,362.192z M296.782,286.995c13.078-6.915,29.923-28.247,47.493-17.81
	c2.791,27.979-21.917,45.276-47.493,51.451c32.543,17.289,68.094-16.918,57.388-55.409c-45.965-29.82-108.719,31.767-104.881,89.05
	c16.096,30.009,80.264,16.777,87.07-13.852c-9.577,7.126-65.939,41.283-75.196,9.894c-5.126-17.377,9.654-30.371,15.831-43.535
	C284.417,301.015,291.013,294.419,296.782,286.995z M294.802,306.784c21.562-0.207,31.733-11.804,37.6-27.704
	C316.167,284.612,304.373,294.585,294.802,306.784z M286.887,316.678c-6.296,1.658-16.035,16.917-13.852,33.641
	c18.816,1.007,33.157-2.461,41.557-11.873C300.479,336.069,287.181,332.875,286.887,316.678z"/>
<path fill-rule="evenodd" clip-rule="evenodd" fill="#1C76B2" d="M383.853,358.235c-30.813,4.809-28.887,42.354-55.409,51.45
	c-7.152-24.503,12.183-39.119,27.704-47.493c-3.338-3.175-16.83,8.476-23.746,1.98c7.999-17.068,12.049-38.083,31.662-43.537
	c-3.38,15.75-15.156,23.103-19.789,37.599c25.394-1.652,22.808-31.283,43.536-37.599c1.275,11.543-12.587,24.077-17.811,35.621
	c20.44-0.021,16.597-41.441,47.493-37.6c9.826,6.215,5.316,20.554-3.958,23.747c-5.962-3.575,5.626-6.06,1.979-13.853
	c-15.851-1.998-16.67,11.034-21.768,19.79c1.159,4.116,4.159,6.396,5.937,9.894c48.498-2.953,35.2-67.702,75.197-79.155
	c2.247,33.995-23.789,56.623-41.557,77.177c26.493,4.051,20.86-41.136,53.431-37.6c0.581,4.035,5.355,3.88,5.937,7.916
	c-0.887,15.239-14.942,26.875-29.684,21.769c15.467,29.815,46.729-15.348,49.473-37.6c10.423,1.829-1.291,13.493,11.873,11.874
	c-5.002,9.952,1.229,19.571,0,31.662c5.665,4.892,8.439-9.944,17.811-7.915c-2.244,17.8-38.283,30.779-47.494,11.873
	c-9.427,4.082-35.713,16.396-41.556,0c-6.85,3.028-22.536,13.895-29.684,3.957C417.045,360.873,388.469,374.572,383.853,358.235z
	 M443.219,338.446c10.544-13.214,25.198-32.833,25.727-49.472C460.767,304.553,445.412,323.469,443.219,338.446z M464.988,344.382
	c11.361-0.513,19.672-4.073,19.789-15.831C471.681,327.33,467.732,335.254,464.988,344.382z M502.585,360.213
	c3.7,3.875,7.248,0.611,11.874,0c0.272-10.166-0.289-19.499-3.958-25.725C501.682,345.32,507.553,349.219,502.585,360.213z
	 M332.402,399.791c4.433-7.48,16.148-18.097,13.853-25.725C339.387,379.114,328.426,390.484,332.402,399.791z"/>
<path fill-rule="evenodd" clip-rule="evenodd" fill="#1F2022" d="M468.946,288.974c-0.528,16.639-15.183,36.258-25.727,49.472
	C445.412,323.469,460.767,304.553,468.946,288.974z"/>
<path fill-rule="evenodd" clip-rule="evenodd" fill="#1F2022" d="M158.26,304.805c6,5.214,18.51,3.919,19.789,13.852
	c9.808-14.181,38.42-15.626,45.515,1.979c-7.08,18.562,7.867,20.001,5.937,33.641c-1.704,12.052-21.132,24.159-43.536,23.747
	c-5.284-0.1-9.33-5.182-15.831-5.937c-19.259-2.24-47.157,16.564-53.43-7.915c-13.67,30.163-74.003,65.477-106.859,29.683
	c-23.306-25.39-3.543-78.891,41.557-67.283c3.21-5.365,2.549-14.602,3.958-21.768c17.997-40.049,76.3-39.794,112.796-61.346
	c3.297,0,6.598,0,9.895,0C197.907,264.514,164.794,285.495,158.26,304.805z M15.78,383.959c5.276,8.161,24.854,13.821,33.641,13.853
	c58.636,0.221,97.138-110.075,124.67-142.479c-39.357,20.96-122.556,18.21-104.881,83.113c16.863,9.162,41.297,1.703,43.535-15.831
	c-8.29,8.231-35.635,19.856-37.599-1.979c-2.07-23.029,38.352-33.817,65.303-35.62c-23.528,28.139-44.33,96.136-87.071,102.902
	c-19.024,3.011-32.737-7.772-33.642-19.79c-2.222-29.548,36.633-27.632,43.536-9.894C54.716,312.287-7.685,347.676,15.78,383.959z
	 M87.02,322.615c12.328-4.823,24.825-9.475,29.683-21.768C101.908,303.201,90.375,308.82,87.02,322.615z M126.598,362.192
	c12.917,8.601,34.17-0.662,47.493-3.957c8.058,16.566,42.125,4.939,45.514-7.916c-11.533,1.963-31.422,16.906-35.619-1.978
	c14.741,5.106,28.797-6.53,29.682-21.769c-0.583-4.035-5.352-3.88-5.936-7.916c-29.581-2.535-24.69,29.398-45.515,35.62
	c5.318-7.873,9.655-16.729,7.916-31.662C146.394,312.154,124.2,333.716,126.598,362.192z M81.083,352.297c-2.64,0-5.275,0-7.916,0
	c1.083,2.877-2.312,10.23,1.979,9.895C75.757,357.526,82.019,358.51,81.083,352.297z M33.589,374.066
	c8.573,3.167,26.085,3.825,29.684-3.958C50.975,364.592,28.262,343.995,33.589,374.066z"/>
<path fill-rule="evenodd" clip-rule="evenodd" fill="#1C76B2" d="M170.133,322.615c1.739,14.933-2.597,23.789-7.916,31.662
	c20.825-6.222,15.934-38.155,45.515-35.62c0.584,4.035,5.354,3.88,5.936,7.916c-0.885,15.239-14.941,26.875-29.682,21.769
	c4.197,18.884,24.086,3.94,35.619,1.978c-3.389,12.855-37.456,24.482-45.514,7.916c-13.323,3.295-34.577,12.558-47.493,3.957
	C124.2,333.716,146.394,312.154,170.133,322.615z M144.408,356.256c-0.135-6.733-0.617-13.811,3.958-15.831
	c2.941,1.675,2.864,6.37,3.958,9.894c8.932-0.962,9.759-10.03,9.894-19.788C148.067,320.866,129.444,349.497,144.408,356.256z
	 M185.964,344.382c11.364-0.513,19.673-4.073,19.789-15.831C192.658,327.33,188.708,335.254,185.964,344.382z"/>
</svg>
